# xmcd
#
# Track frame offsets:
#  182
#  27355
#  59767
#  71520
#  98885
#  123402
#  149865
#  174477
#  199205
#
# Disc length: 3017 seconds
#
# Revision: 0
# Processed by: cddbd v1.4PL0 Copyright (c) Steve Scherf et al.
# Submitted via: AltoMP3 Maker 3.0
#
DISCID=8e0bc709
DTITLE=Malik-Band - Bloody Road
DYEAR=1900
DGENRE=
TTITLE0=Rover
TTITLE1=To Mother
TTITLE2=Claire
TTITLE3=Barcelona Memories
TTITLE4=Nostalgia
TTITLE5=Odessa Charlston
TTITLE6=Children
TTITLE7=Pilgrims
TTITLE8=Atunum's Circle
EXTD=
EXTT0=
EXTT1=
EXTT2=
EXTT3=
EXTT4=
EXTT5=
EXTT6=
EXTT7=
EXTT8=
PLAYORDER=
